# xmcd CD database file
#
# Track frame offsets:
#	151
#	16185
#	40334
#	51160
#	67693
#	88636
#	119299
#	138040
#	155935
#	173980
#	195152
#
# Disc length: 2862 seconds
#
# Revision: 0
# Processed by: cddbd v1.5.1PL0 Copyright (c) Steve Scherf et al.
# Submitted via: CDex 1.51
#
DISCID=860b2c0b
DTITLE=Stevie Ray Vaughan and Double Trouble - Greatest Hits
DYEAR=1995
DGENRE=Blues
TTITLE0=Tax Man
TTITLE1=Texas Flood
TTITLE2=The House Is Rockin'
TTITLE3=Pride And joy
TTITLE4=Tight Rope
TTITLE5=Little Wing
TTITLE6=Crossfire
TTITLE7=Change It
TTITLE8=Cold Shot
TTITLE9=Couldn't Stand The Weather
TTITLE10=Life Without You
EXTD=YEAR: 1995
EXTT0=
EXTT1=
EXTT2=
EXTT3=
EXTT4=
EXTT5=
EXTT6=
EXTT7=
EXTT8=
EXTT9=
EXTT10=
PLAYORDER=
